<?xml version="1.0" encoding="UTF-8"?>
<!DOCTYPE svg PUBLIC "-//W3C//DTD SVG 1.1//EN" "http://www.w3.org/Graphics/SVG/1.1/DTD/svg11.dtd">
<!-- Creator: CorelDRAW X8 -->
<svg xmlns="http://www.w3.org/2000/svg" xml:space="preserve" width="24px" height="24px" version="1.1" style="shape-rendering:geometricPrecision; text-rendering:geometricPrecision; image-rendering:optimizeQuality; fill-rule:evenodd; clip-rule:evenodd"
viewBox="0 0 24 24"
 xmlns:xlink="http://www.w3.org/1999/xlink">
 <defs>
  <style type="text/css">
   <![CDATA[
    .fil0 {fill:#727271;fill-rule:nonzero}
   ]]>
  </style>
 </defs>
 <g id="Layer_x0020_1">
  <metadata id="CorelCorpID_0Corel-Layer"/>
  <path class="fil0" d="M2 5c0,-1 0,-2 1,-2l0 0c0,-1 1,-1 2,-1l14 0c1,0 2,0 2,1 1,0 1,1 1,2l0 14c0,1 0,2 -1,2 0,1 -1,1 -2,1l-14 0c-1,0 -2,0 -2,-1 -1,0 -1,-1 -1,-2l0 -14zm15 9l-2 0 0 7 4 0c0,0 1,-1 1,-1 0,0 1,-1 1,-1l0 -14c0,0 -1,-1 -1,-1 0,0 -1,-1 -1,-1l-14 0c0,0 -1,1 -1,1l0 0c0,0 -1,1 -1,1l0 14c0,0 1,1 1,1 0,0 1,1 1,1l7 0 0 -7 -2 0 0 -2 2 0 0 -1c0,-1 0,-2 1,-3 0,0 1,0 2,0 1,0 2,0 3,0l-1 2c0,0 -1,0 -1,0 -1,0 -1,0 -1,0 0,0 0,1 0,1l0 1 2 0 0 2z"/>
 </g>
</svg>
