<?xml version="1.0" encoding="UTF-8"?>
<!DOCTYPE svg PUBLIC "-//W3C//DTD SVG 1.1//EN" "http://www.w3.org/Graphics/SVG/1.1/DTD/svg11.dtd">
<!-- Creator: CorelDRAW X8 -->
<svg xmlns="http://www.w3.org/2000/svg" xml:space="preserve" width="24px" height="24px" version="1.1" style="shape-rendering:geometricPrecision; text-rendering:geometricPrecision; image-rendering:optimizeQuality; fill-rule:evenodd; clip-rule:evenodd"
viewBox="0 0 24 24"
 xmlns:xlink="http://www.w3.org/1999/xlink">
 <defs>
  <style type="text/css">
   <![CDATA[
    .fil0 {fill:#727271}
   ]]>
  </style>
 </defs>
 <g id="Layer_x0020_1">
  <metadata id="CorelCorpID_0Corel-Layer"/>
  <path class="fil0" d="M4 2c-1,0 -2,1 -2,2l0 16c0,1 1,2 2,2l16 0c1,0 2,-1 2,-2l0 -16c0,-1 -1,-2 -2,-2l-16 0zm0 2l16 0c0,0 0,0 0,0l0 7 -3 0c-1,-2 -3,-4 -5,-4 -2,0 -4,2 -5,4l-3 0 0 -7c0,0 0,0 0,0zm14 1c-1,0 -1,1 -1,1 0,1 0,2 1,2 0,0 1,-1 1,-2 0,0 -1,-1 -1,-1zm-6 4c2,0 3,1 3,3 0,2 -1,3 -3,3 -2,0 -3,-1 -3,-3 0,-2 1,-3 3,-3zm-8 4l3 0c1,2 3,4 5,4 2,0 4,-2 5,-4l3 0 0 7c0,0 0,0 0,0l-16 0c0,0 0,0 0,0l0 -7z" display="inline"/>
 </g>
</svg>
