<?xml version="1.0" encoding="UTF-8"?>
<!DOCTYPE svg PUBLIC "-//W3C//DTD SVG 1.1//EN" "http://www.w3.org/Graphics/SVG/1.1/DTD/svg11.dtd">
<!-- Creator: CorelDRAW X8 -->
<svg xmlns="http://www.w3.org/2000/svg" xml:space="preserve" width="142px" height="142px" version="1.1" style="shape-rendering:geometricPrecision; text-rendering:geometricPrecision; image-rendering:optimizeQuality; fill-rule:evenodd; clip-rule:evenodd"
viewBox="0 0 142 142"
 xmlns:xlink="http://www.w3.org/1999/xlink">
 <defs>
  <style type="text/css">
   <![CDATA[
    .str0 {stroke:#D2A351;stroke-width:2.36667}
    .fil0 {fill:none}
    .fil1 {fill:#D2A351;fill-rule:nonzero}
   ]]>
  </style>
 </defs>
 <g id="Layer_x0020_1">
  <metadata id="CorelCorpID_0Corel-Layer"/>
  <circle class="fil0 str0" cx="71" cy="71" r="67"/>
  <path class="fil1" d="M84 63c0,0 0,0 0,0 0,-1 0,-1 0,-1l0 0 8 0c0,0 1,-1 1,-1 0,0 0,0 0,-1 0,0 0,0 0,-1 0,0 -1,0 -1,0l-9 0 0 0c0,0 0,0 0,0 0,-1 0,-1 -1,-1l0 0 0 0c0,-1 0,-1 0,-2 0,-1 0,-1 -1,-2l0 0 11 0c0,0 1,-1 1,-1 0,0 0,0 0,-1 0,0 0,0 0,-1 0,0 -1,0 -1,0l-14 0 0 0c-1,0 -1,-1 -2,-1 -1,0 -2,0 -3,0 -1,0 -2,0 -3,0 0,0 -1,1 -2,1l0 0 -17 0 0 -1c0,-1 0,-1 0,-1 0,0 -1,-1 -1,-1l0 0c0,0 -1,1 -1,1 0,0 0,0 0,1l0 40c0,0 0,0 0,1 0,0 1,0 1,0l0 0c0,0 1,0 1,0 0,-1 0,-1 0,-1l0 -4 4 0 0 2c0,0 0,1 1,1 0,0 0,0 1,0l4 0 0 3c0,1 0,1 0,1 0,0 0,1 1,1l22 0c1,0 1,-1 1,-1 0,0 1,0 1,-1l0 -3 4 0c0,0 0,0 0,0 1,0 1,-1 1,-1l0 -2 1 0c0,0 1,-1 1,-1 0,0 0,0 0,-1 0,0 0,0 0,-1 0,0 -1,0 -1,0l-1 0 0 0c0,-1 0,-2 -1,-3 0,0 -1,-1 -1,-2l-1 0 4 0c0,0 1,-1 1,-1 0,0 0,0 0,-1 0,0 0,0 0,-1 0,0 -1,0 -1,0 -2,0 -6,0 -8,0l0 0c-1,0 -2,-1 -3,-1 -1,0 -1,0 -2,0l0 0 0 0c0,-1 -1,-1 -1,-2 0,0 0,-1 0,-1l0 0 0 0 0 0c0,-1 0,-1 1,-1 0,0 0,0 0,0l0 0 13 0c0,0 1,-1 1,-1 0,0 0,0 0,-1 0,0 0,0 0,-1 0,0 -1,0 -1,0l-13 0 2 -1c1,0 1,0 2,-1 0,0 1,-1 1,-2zm-4 -5l0 1c0,0 0,1 0,1 0,0 1,0 1,0l0 0c0,0 0,0 0,1 0,0 0,0 1,0 0,0 0,0 0,1 0,0 0,0 0,0 -1,1 -1,1 -1,1 0,1 -1,1 -1,1l0 0 0 0c0,0 0,0 -1,0 0,0 0,1 0,1 -1,1 -2,3 -3,4 -1,1 -2,2 -3,2 -1,0 -2,-1 -3,-2 -1,-1 -2,-3 -3,-4 0,0 0,-1 0,-1 0,0 0,0 -1,0 0,0 0,0 0,0l0 0 0 0c0,0 -1,0 -1,-1 0,0 0,0 0,-1 0,0 -1,0 -1,0 0,-1 1,-1 1,-1 0,0 0,0 0,0 0,-1 0,-1 0,-1l0 0c0,0 1,0 1,0 0,0 0,-1 0,-1l0 -1c0,-1 1,-3 2,-4 1,-1 3,-2 5,-2 2,0 4,1 5,2 1,1 2,3 2,4l0 0zm-2 18c-1,1 -1,2 -2,2 -1,1 -2,1 -3,1 -1,0 -2,0 -3,-1 0,0 -1,-1 -2,-2l0 0 1 0c0,-1 0,-1 1,-2 0,0 0,-1 0,-1l0 0 1 0c0,0 1,0 1,0 0,0 1,0 1,0 0,0 1,0 1,0 1,0 1,0 1,0l1 0 0 0c0,0 0,1 0,1 1,1 1,1 2,2l0 0 0 0zm-16 -1l-11 0 0 -5 16 0 0 0c0,0 0,0 1,0 0,0 0,0 0,1l0 0 0 0 0 0c0,0 0,1 0,2 0,0 -1,0 -1,1l0 0 0 0c-1,0 -1,0 -2,0 -1,0 -2,1 -2,1l0 0 -1 0zm0 -13c0,0 0,0 0,1 0,0 0,0 0,0 0,1 1,2 1,2 1,1 1,1 2,1l2 1 -16 0 0 -5 11 0 0 0zm3 -8c0,1 -1,1 -1,2 0,1 0,1 0,2l0 0 0 0c0,0 -1,0 -1,1 0,0 0,0 0,0l0 0 -12 0 0 -5 14 0 0 0zm-14 24l7 0 0 0c-1,1 -2,2 -2,2 0,1 -1,2 -1,3l0 0 -4 0 0 -5 0 0zm32 13l-20 0 0 -5 20 0 0 5 0 0zm5 -4l-2 0 0 -3c0,0 -1,0 -1,-1 0,0 0,0 -1,0l-22 0c-1,0 -1,0 -1,0 0,1 0,1 0,1l0 3 -3 0 0 -4c0,-1 1,-3 2,-4 2,-1 4,-2 6,-2l0 -1 0 1c1,1 2,2 3,3 1,1 3,1 4,1 2,0 3,0 4,-1 1,-1 2,-2 3,-3l0 -1 0 1c2,0 5,1 6,2 1,1 2,3 2,4l0 4 0 0z"/>
 </g>
</svg>
