<?xml version="1.0" encoding="UTF-8"?>
<!DOCTYPE svg PUBLIC "-//W3C//DTD SVG 1.1//EN" "http://www.w3.org/Graphics/SVG/1.1/DTD/svg11.dtd">
<!-- Creator: CorelDRAW X8 -->
<svg xmlns="http://www.w3.org/2000/svg" xml:space="preserve" width="142px" height="142px" version="1.1" style="shape-rendering:geometricPrecision; text-rendering:geometricPrecision; image-rendering:optimizeQuality; fill-rule:evenodd; clip-rule:evenodd"
viewBox="0 0 142 142"
 xmlns:xlink="http://www.w3.org/1999/xlink">
 <defs>
  <style type="text/css">
   <![CDATA[
    .str0 {stroke:#D2A351;stroke-width:2.36667}
    .fil0 {fill:none}
    .fil1 {fill:#D2A351}
   ]]>
  </style>
 </defs>
 <g id="Layer_x0020_1">
  <metadata id="CorelCorpID_0Corel-Layer"/>
  <circle class="fil0 str0" cx="71" cy="71" r="67"/>
  <path class="fil1" d="M71 48c-2,0 -5,1 -6,3 -2,1 -3,3 -4,5l0 1 -11 0c-1,0 -1,0 -1,0 0,0 -1,1 -1,1l0 17c0,0 1,1 1,1 0,0 0,0 1,0l1 0 0 16c0,1 0,1 0,1 1,0 1,1 1,1l38 0c0,0 0,-1 1,-1 0,0 0,0 0,-1l0 -16 1 0c1,0 1,0 1,0 0,0 1,-1 1,-1l0 -17c0,0 -1,-1 -1,-1 0,0 0,0 -1,0l-11 0 0 -1c-1,-2 -2,-4 -4,-5 -1,-2 -4,-3 -6,-3zm0 43l-18 0 0 -15 5 0 0 2c0,1 0,1 0,1 1,0 1,0 1,0l7 0c0,0 0,0 1,0 0,0 0,0 0,-1l0 -2 8 0 0 2c0,1 0,1 0,1 1,0 1,0 1,0l7 0c0,0 0,0 1,0 0,0 0,0 0,-1l0 -2 5 0 0 15 -18 0zm0 -17l-4 0 0 -2c0,0 0,-1 0,-1 -1,0 -1,0 -1,0l-7 0c0,0 0,0 -1,0 0,0 0,1 0,1l0 2 -7 0 0 -15 40 0 0 15 -7 0 0 -2c0,0 0,-1 0,-1 -1,0 -1,0 -1,0l-7 0c0,0 0,0 -1,0 0,0 0,1 0,1l0 2 -4 0zm0 -17l-7 0 0 -1c0,-1 1,-3 3,-4 1,-1 2,-1 4,-1 2,0 3,0 4,1 2,1 3,3 3,4l0 1 -7 0zm7 16l4 0 0 4 -4 0 0 -4 0 0zm-17 0l3 0 0 4 -4 0 0 -4 1 0z"/>
 </g>
</svg>
