<?xml version="1.0" encoding="UTF-8"?>
<!DOCTYPE svg PUBLIC "-//W3C//DTD SVG 1.1//EN" "http://www.w3.org/Graphics/SVG/1.1/DTD/svg11.dtd">
<!-- Creator: CorelDRAW X8 -->
<svg xmlns="http://www.w3.org/2000/svg" xml:space="preserve" width="142px" height="142px" version="1.1" style="shape-rendering:geometricPrecision; text-rendering:geometricPrecision; image-rendering:optimizeQuality; fill-rule:evenodd; clip-rule:evenodd"
viewBox="0 0 142 142"
 xmlns:xlink="http://www.w3.org/1999/xlink">
 <defs>
  <style type="text/css">
   <![CDATA[
    .str0 {stroke:#D2A351;stroke-width:2.36667}
    .fil0 {fill:none}
    .fil1 {fill:#D2A351;fill-rule:nonzero}
   ]]>
  </style>
 </defs>
 <g id="Layer_x0020_1">
  <metadata id="CorelCorpID_0Corel-Layer"/>
  <rect class="fil0" x="-346" y="2135" width="51.2691" height="49.7035"/>
  <circle class="fil0 str0" cx="71" cy="71" r="67"/>
  <g id="_2096547802464">
   <path class="fil1" d="M93 56l-14 -1 0 -4c0,0 -1,0 -1,0l-21 0c-1,-2 -2,-3 -4,-3 -1,0 -2,1 -3,3l-1 0c0,0 -1,0 -1,0l0 42c0,0 1,1 1,1l29 0c0,0 1,-1 1,-1l0 -1 9 1c0,0 0,0 0,0 0,0 1,0 1,-1l5 -35c0,0 -1,0 -1,-1zm-1 2l0 0 0 3 -4 3 -9 -1 0 -7 13 2zm-39 -8l0 0c1,0 2,0 2,1l-3 0c0,-1 1,-1 1,-1zm24 42l0 0 -27 0 0 -40 6 0c0,0 0,0 0,0l0 7c0,1 -1,2 -2,2 0,0 -1,-1 -1,-2l0 0c0,0 0,0 0,0l0 -4c0,0 0,0 0,0 0,0 1,0 1,0l0 4 1 0 0 -4c0,-1 -1,-2 -2,-2 -1,0 -1,1 -1,2l0 2c0,0 0,0 0,0l0 2c0,2 1,3 2,3 2,0 3,-1 3,-3l0 -7c0,0 0,0 0,0l20 0 0 40zm10 -1l0 0 -8 -1 0 -25 9 1c0,0 0,0 0,0 0,0 0,0 1,0l2 -3 -4 28z"/>
   <polygon class="fil1" points="72,55 76,55 76,57 72,57 "/>
   <polygon class="fil1" points="69,58 76,58 76,60 69,60 "/>
   <polygon class="fil1" points="51,65 76,65 76,67 51,67 "/>
   <polygon class="fil1" points="51,68 76,68 76,70 51,70 "/>
   <polygon class="fil1" points="51,71 76,71 76,73 51,73 "/>
   <polygon class="fil1" points="51,74 62,74 62,76 51,76 "/>
   <polygon class="fil1" points="65,84 75,84 75,86 65,86 "/>
   <path class="fil1" d="M67 82c0,-1 0,-1 -1,-1 0,-1 0,-1 0,-1 1,-1 1,-1 1,-1 0,1 0,1 0,1 0,0 1,1 1,1 0,0 0,0 0,0 0,1 0,1 0,1 0,1 0,1 1,1 0,0 0,0 0,0 1,0 1,-1 1,-1 0,0 0,-1 0,-1 0,0 0,0 1,-1 0,0 0,0 0,1 0,0 0,0 0,0 0,1 0,1 1,2l0 0c1,0 1,-1 1,-1l1 -1 0 -1 -2 1 0 0c0,0 0,0 0,0 0,0 0,0 0,0 0,-1 0,-1 0,-1 0,-1 -1,-2 -2,-1 0,0 0,0 -1,0 0,1 0,1 0,1 0,0 0,0 0,0 0,-1 -1,-2 -1,-2 -1,0 -2,0 -3,1 0,0 0,1 0,2 0,1 0,1 1,2l1 -1z"/>
  </g>
 </g>
</svg>
