<?xml version="1.0" encoding="UTF-8"?>
<!DOCTYPE svg PUBLIC "-//W3C//DTD SVG 1.1//EN" "http://www.w3.org/Graphics/SVG/1.1/DTD/svg11.dtd">
<!-- Creator: CorelDRAW X8 -->
<svg xmlns="http://www.w3.org/2000/svg" xml:space="preserve" width="142px" height="142px" version="1.1" style="shape-rendering:geometricPrecision; text-rendering:geometricPrecision; image-rendering:optimizeQuality; fill-rule:evenodd; clip-rule:evenodd"
viewBox="0 0 142 142"
 xmlns:xlink="http://www.w3.org/1999/xlink">
 <defs>
  <style type="text/css">
   <![CDATA[
    .str0 {stroke:#D2A351;stroke-width:2.36667}
    .fil0 {fill:none}
    .fil1 {fill:#D2A351}
   ]]>
  </style>
 </defs>
 <g id="Layer_x0020_1">
  <metadata id="CorelCorpID_0Corel-Layer"/>
  <rect class="fil0" x="-346" y="2135" width="51.2691" height="49.7035"/>
  <circle class="fil0 str0" cx="71" cy="71" r="67"/>
  <g id="_2096544765088">
   <path class="fil1" d="M60 62c0,0 0,0 1,0 0,-1 0,-1 1,-1 0,-1 0,-1 0,-2 0,0 0,-1 0,-1 -1,0 -1,-1 -1,-1 -1,0 -1,0 -1,0 0,-1 0,-1 0,-1 0,0 0,0 1,-1 0,0 0,0 0,0 1,0 1,0 2,0 0,0 0,-1 1,-1 0,0 0,-1 0,-1 0,0 0,-1 0,-1 0,-1 0,-1 0,-1 0,0 0,0 0,0 0,-1 1,-1 1,-1 0,0 0,0 0,1 1,0 1,0 2,0 0,0 1,0 1,0 1,0 1,0 1,-1 1,0 1,0 1,-1 0,0 0,0 0,0 1,0 1,-1 1,-1 0,0 0,1 1,1 0,0 0,0 0,0 0,1 0,1 1,1 0,1 0,1 1,1 0,0 1,0 1,0 1,0 1,0 2,0 0,-1 0,-1 0,-1 0,0 1,0 1,1 0,0 0,0 0,0 0,0 0,0 0,1 0,0 0,1 0,1 0,0 0,1 0,1 1,0 1,1 1,1 1,0 1,0 2,0l0 0c0,0 0,0 0,0 1,1 1,1 1,1 0,0 0,0 0,1 0,0 0,0 -1,0 0,0 0,1 -1,1 0,0 0,1 0,1 0,1 0,1 0,2 1,0 1,0 1,1 1,0 1,0 1,0 0,0 0,0 0,1 0,0 0,0 -1,0 0,0 0,0 0,0 -1,0 -1,0 -2,1 0,0 0,0 -1,1 0,0 0,0 0,1 0,0 0,1 0,1 0,0 0,0 0,1 0,0 0,0 0,0 0,0 -1,0 -1,0 0,0 0,0 0,0 -1,0 -1,0 -2,0 0,0 -1,0 -1,0 -1,0 -1,0 -1,0 -1,1 -1,1 -1,2 0,0 0,0 0,0 -1,0 -1,0 -1,0 0,0 0,0 -1,0 0,0 0,0 0,0 0,-1 0,-1 -1,-2 0,0 0,0 -1,0 0,0 -1,0 -1,0 -1,0 -1,0 -2,0 0,0 0,0 0,0 0,0 -1,0 -1,0 0,0 0,0 0,0 0,-1 0,-1 0,-1 0,0 0,-1 0,-1 0,-1 0,-1 0,-1 -1,-1 -1,-1 -1,-1 -1,-1 -1,-1 -2,-1 0,0 0,0 0,0 -1,0 -1,0 -1,0 0,-1 0,-1 0,-1zm14 1c0,1 -2,1 -3,1 -1,0 -3,0 -3,-1 -1,-1 -2,-2 -2,-4 0,-1 1,-2 2,-3 0,-1 2,-1 3,-1 1,0 3,0 3,1 1,1 2,2 2,3 0,2 -1,3 -2,4zm-1 -6c0,0 -1,-1 -2,-1 -1,0 -2,1 -2,1 -1,1 -1,1 -1,2 0,1 0,2 1,3 0,0 1,0 2,0 1,0 2,0 2,0 1,-1 1,-2 1,-3 0,-1 0,-1 -1,-2zm-9 -1c0,1 -1,1 -1,1 0,0 0,0 1,1 0,0 0,1 0,1 0,1 0,1 0,2 -1,0 -1,1 -1,1 0,0 1,0 1,0 1,1 1,1 1,1 1,1 1,1 1,2 0,0 0,0 0,1l0 0c1,0 1,0 1,0 1,0 1,0 1,0 0,0 1,0 1,0 0,0 1,0 1,1 1,0 1,0 1,0 0,0 0,0 1,0 0,-1 1,-1 1,-1 1,0 1,0 2,0 0,0 1,0 1,0 0,-1 0,-1 0,-1 0,-1 0,-1 1,-2 0,0 0,0 1,-1 0,0 1,0 1,0 0,0 0,-1 -1,-1 0,-1 0,-1 0,-2 0,0 0,-1 0,-1 1,-1 1,-1 1,-1 0,0 -1,0 -1,-1 -1,0 -1,0 -1,-1 -1,0 -1,-1 -1,-1 0,0 0,-1 0,-1 0,0 -1,0 -1,0 -1,0 -1,0 -2,0 0,0 -1,-1 -1,-1 -1,0 -1,0 -1,-1 0,1 0,1 -1,1 0,0 -1,1 -1,1 -1,0 -1,0 -2,0 0,0 -1,0 -1,0 0,0 0,1 0,1 0,0 0,1 -1,1 0,1 0,1 -1,1z"/>
   <path class="fil1" d="M50 68c8,1 19,4 26,8 5,-2 11,-3 16,-3 1,-1 2,0 2,1 0,0 -1,1 -1,1 -5,0 -11,1 -15,2 -10,3 -20,9 -28,16 0,0 0,1 0,1 -1,0 -1,-1 -1,-1 -1,0 -1,-1 0,-1 2,-2 4,-4 7,-6 -3,-1 -5,-1 -7,-2 0,0 -1,-1 -1,-1 1,-1 1,-1 2,-1 2,1 5,2 8,2 1,0 2,-1 3,-1 -4,-2 -8,-3 -12,-4 0,0 -1,0 -1,-1 1,0 1,-1 2,-1 4,1 9,2 13,4 1,0 2,-1 4,-2 -6,-2 -12,-3 -18,-4 0,0 -1,-1 -1,-1 1,-1 1,-1 2,-1 6,1 13,3 19,5 2,0 3,-1 4,-1 -7,-3 -16,-6 -24,-7 0,0 -1,0 -1,-1 0,0 1,-1 2,-1zm43 19c1,0 0,0 0,1 0,0 0,0 0,0 -3,1 -5,2 -8,2 -2,1 -5,2 -7,3l0 1 0 0c0,0 -1,-1 -1,-1 0,0 0,0 0,0 0,0 0,-1 0,-1 0,0 0,0 0,0 3,-1 5,-3 8,-3 2,-1 5,-2 7,-3 1,0 1,0 1,0 0,0 0,1 0,1zm-26 6c0,0 0,0 0,0 0,0 0,0 -1,0 0,0 0,0 0,0 0,0 0,0 0,-1 0,0 0,0 0,0 5,-3 9,-5 13,-7 5,-2 10,-3 13,-4 1,0 1,0 1,1 0,0 0,0 0,0l0 0c1,1 0,1 0,1 0,0 0,0 0,0 -4,1 -9,2 -14,4 -4,2 -8,4 -12,6 0,0 0,0 0,0zm6 -11c8,-3 15,-4 19,-5 1,0 1,0 1,0 0,0 0,0 0,1l0 0c1,0 0,0 0,0 0,1 0,1 0,1 -5,0 -12,2 -19,5 -5,2 -11,5 -16,9 0,0 0,0 0,0 0,0 0,0 0,0 0,0 -1,0 -1,0 0,0 0,0 0,0l0 0c0,0 0,0 0,-1 0,0 0,0 0,0l0 0c5,-5 11,-8 16,-10z"/>
  </g>
 </g>
</svg>
