<?xml version="1.0" encoding="UTF-8"?>
<!DOCTYPE svg PUBLIC "-//W3C//DTD SVG 1.1//EN" "http://www.w3.org/Graphics/SVG/1.1/DTD/svg11.dtd">
<!-- Creator: CorelDRAW X8 -->
<svg xmlns="http://www.w3.org/2000/svg" xml:space="preserve" width="142px" height="142px" version="1.1" style="shape-rendering:geometricPrecision; text-rendering:geometricPrecision; image-rendering:optimizeQuality; fill-rule:evenodd; clip-rule:evenodd"
viewBox="0 0 142 142"
 xmlns:xlink="http://www.w3.org/1999/xlink">
 <defs>
  <style type="text/css">
   <![CDATA[
    .str0 {stroke:#D2A351;stroke-width:2.36667}
    .fil0 {fill:none}
    .fil1 {fill:#D2A351;fill-rule:nonzero}
   ]]>
  </style>
 </defs>
 <g id="Layer_x0020_1">
  <metadata id="CorelCorpID_0Corel-Layer"/>
  <circle class="fil0 str0" cx="71" cy="71" r="67"/>
  <path class="fil1" d="M55 64c-1,-1 -1,-1 -1,-1 0,0 0,0 -1,0 0,0 0,0 0,-1l0 0c0,0 0,0 0,0 -1,-1 -1,-1 -1,-1 0,0 0,0 0,0 0,0 0,-1 0,-1 0,0 0,0 0,0 0,0 0,0 0,0 0,0 0,-1 0,-1 0,0 0,0 0,-1l0 0c0,0 0,0 0,-1 0,0 0,0 0,0 0,0 0,0 0,-1 0,0 0,0 0,0 0,0 0,0 0,0 0,0 0,0 0,0 0,-1 0,-1 1,-1 0,-1 0,-1 0,-1l0 0c0,0 0,0 0,-1 1,0 1,0 1,0 0,0 0,0 1,0 0,0 0,0 0,0 0,0 0,0 0,0 0,0 0,-1 0,-1 0,0 1,0 1,0 0,0 0,-1 0,-1l0 0c1,0 1,0 1,0 1,0 1,0 1,0 0,0 0,0 0,0 1,0 1,0 1,1 0,-1 0,-1 0,-1 0,0 0,0 0,0 1,0 1,0 1,0 0,0 1,0 1,0l0 0c0,0 0,1 1,1 0,0 0,0 0,0 0,0 0,1 0,1 1,0 1,0 1,0 0,0 0,0 0,0 0,0 0,0 0,0 0,0 1,0 1,0 0,1 0,1 1,1l0 0c0,0 0,0 0,1 0,0 0,0 0,1 0,0 0,0 0,0 0,0 0,0 0,0 0,0 0,0 0,0 0,1 0,1 0,1 1,0 1,0 1,0 0,1 0,1 0,1l0 0c0,1 0,1 0,1 0,0 0,1 -1,1 0,0 0,0 0,0 0,0 0,0 0,0 0,0 0,1 0,1 0,0 0,0 0,0 0,0 0,0 0,1 0,0 0,0 0,0l0 0c-1,1 -1,1 -1,1 0,0 -1,0 -1,0 0,0 0,0 0,1 0,0 0,0 0,0 0,0 0,0 -1,0 0,0 0,0 0,0 0,0 0,1 0,1 -1,0 -1,0 -1,0l0 0c0,0 0,0 0,0 0,0 -1,0 -1,0 0,0 0,0 0,0 0,0 0,0 -1,0 0,0 0,0 0,0 0,0 0,0 0,0 0,0 0,0 -1,0 0,0 0,0 0,0 0,0 0,0 -1,0 0,0 0,0 -1,0l0 0c0,0 0,0 0,0 0,0 -1,-1 -1,-1 0,0 0,0 0,0 0,0 0,0 0,0 0,0 0,0 0,0zm32 -13l1 0 0 0 -1 0 0 0 0 0zm3 1l3 2c0,0 0,0 1,1 0,0 0,1 -1,1l-14 20c0,0 0,1 0,1 -1,0 -1,0 -1,0 0,0 0,0 0,0l0 0 -10 12c0,0 0,0 -1,0 0,0 -1,0 -1,0l0 0 -2 0c0,0 0,0 0,0 0,0 0,0 0,0l-1 -1 0 1c0,0 0,1 0,1 -1,1 -1,1 -2,1 -1,0 -1,0 -1,-1 -1,0 -1,-1 -1,-1l0 -8c0,0 0,0 0,0 0,0 -1,0 -1,0 0,0 0,0 0,0 0,0 0,0 0,0l0 8c0,0 0,0 -1,0 0,0 0,0 0,0 0,0 -1,0 -1,0 0,0 0,0 0,0l0 -8c0,0 0,-1 1,-1 0,-1 1,-1 1,-1 1,0 1,0 2,1 0,0 0,1 0,1l0 8c0,0 1,0 1,0 0,0 0,1 0,1 0,0 0,-1 1,-1 0,0 0,0 0,0l0 -2c0,-1 0,-1 0,-1 0,0 0,0 0,0l0 0c0,0 0,0 1,0 0,0 0,0 0,0l2 1 0 0c1,0 1,0 1,0 0,0 0,0 0,0l7 -13c0,-1 0,-1 0,-1 0,0 0,0 0,-1l15 -20c0,0 0,-1 1,-1 0,0 0,0 1,1l0 0zm-16 23l-7 12 9 -11 -2 -1zm13 -17c0,1 1,1 2,1l-2 -1zm-12 15l3 2 11 -15 -3 -3 -11 16zm14 -15c0,0 -1,-1 -1,-1l1 1zm-2 -2l3 2 2 -3 -3 -2 -2 3zm-9 36c0,-1 0,-1 0,-2l0 -11c0,0 1,0 1,0l0 0c0,0 0,-1 0,-1 0,0 1,0 1,0l0 0 0 12c0,1 -1,2 -1,3 -1,0 -1,1 -2,1l-25 0c-1,0 -2,-1 -3,-1 0,-1 -1,-2 -1,-3l0 -38c0,-1 1,-2 1,-3 1,0 2,-1 3,-1l25 0c1,0 1,1 2,1 0,1 1,2 1,3l0 8c-1,1 -1,2 -2,2l0 -10c0,-1 0,-1 0,-2 -1,0 -1,0 -1,0l-25 0c-1,0 -1,0 -2,0 0,1 0,1 0,2l0 38c0,1 0,1 0,2 1,0 1,0 2,0l25 0c0,0 0,0 1,0zm-25 -20l19 0 0 0c-1,0 -1,1 -1,1 0,0 0,0 0,0l0 0c0,0 0,1 0,1l-18 0c0,0 0,0 0,-1 0,0 0,0 0,0 0,0 0,0 0,-1 0,0 0,0 0,0zm0 -4l21 0c0,1 -1,1 -1,2l-20 0c0,0 0,0 0,0 0,0 0,-1 0,-1 0,0 0,0 0,0 0,-1 0,-1 0,-1zm0 9c0,0 0,0 0,0 0,0 0,-1 0,-1 0,0 0,0 0,0l17 0 -1 2 -16 0c0,0 0,-1 0,-1zm9 -16c-1,1 -2,1 -3,1 -1,0 -2,0 -3,-1 -1,-1 -1,-2 -1,-3 0,-1 0,-2 1,-3 1,0 2,-1 3,-1 1,0 2,1 3,1 0,1 1,2 1,3 0,1 -1,2 -1,3zm-2 -5c0,0 -1,0 -1,0 -1,0 -2,0 -2,0 -1,1 -1,2 -1,2 0,1 0,2 1,2 0,0 1,1 2,1 0,0 1,-1 1,-1 1,0 1,-1 1,-2 0,0 0,-1 -1,-2zm-6 1c0,0 0,0 -1,0l0 0c0,1 0,1 0,1 0,0 0,0 0,0 0,0 0,0 0,1 0,0 0,0 0,0l0 0c1,0 1,0 1,0 0,1 0,1 0,1l0 0c0,0 0,0 0,0 0,0 0,1 0,1l0 0c0,0 0,0 0,0 0,0 0,0 0,1 0,0 0,0 0,0 1,0 1,0 1,0l0 0c0,0 0,0 0,0 0,0 1,0 1,0l0 0c0,0 0,1 0,1 0,0 0,0 0,0l0 0c0,0 1,0 1,0 0,0 0,1 0,1 0,0 0,0 0,0 0,0 1,0 1,-1l0 0c0,0 0,0 0,0 0,0 1,0 1,0l0 0c0,0 0,0 0,0 0,0 1,0 1,0l0 0c0,1 0,1 0,1 0,0 0,0 0,0 1,0 1,-1 1,-1 0,0 0,0 0,0l0 0c0,0 0,0 0,0 0,0 1,-1 1,-1l0 0c0,0 0,0 0,0 0,0 0,0 1,0l0 0c0,0 0,0 0,0 0,0 0,0 0,0 0,-1 0,-1 0,-1 0,0 0,0 0,0l0 0c0,0 0,-1 0,-1 1,0 1,0 1,0l0 0c0,0 0,0 0,-1 0,0 0,0 0,0l0 0c0,0 0,0 0,0 0,-1 0,-1 0,-1 0,0 0,0 0,0 0,0 0,0 0,-1l0 0c0,0 0,0 0,0 0,0 0,0 0,0l0 0c0,-1 0,-1 -1,-1 0,0 0,0 0,0l0 0c0,0 0,-1 0,-1 0,0 0,0 0,0 0,0 0,0 0,0 0,0 0,0 0,0l0 0c-1,-1 -1,-1 -1,-1 0,0 0,0 0,0l0 0c0,0 -1,0 -1,0 0,0 0,0 0,-1l0 0c0,0 0,0 0,0 0,0 0,0 -1,0 0,0 0,0 0,0 0,0 0,0 0,0l0 0c0,0 -1,0 -1,0 0,0 0,0 0,0l0 0c0,0 -1,0 -1,0 0,0 0,0 0,0l0 0c0,0 -1,0 -1,0 0,0 0,0 0,0 0,0 0,0 0,0 0,0 -1,0 -1,0l0 0c0,1 0,1 0,1 0,0 0,0 0,0l0 0c0,0 -1,0 -1,0 0,0 0,0 0,1l0 0c0,0 0,0 -1,0 0,0 0,0 0,0 0,0 0,0 0,0 0,0 0,1 0,1l0 0c0,0 0,0 0,0 0,0 0,0 0,1l0 0c0,0 0,0 0,0z"/>
 </g>
</svg>
