<?xml version="1.0" encoding="UTF-8"?>
<!DOCTYPE svg PUBLIC "-//W3C//DTD SVG 1.1//EN" "http://www.w3.org/Graphics/SVG/1.1/DTD/svg11.dtd">
<!-- Creator: CorelDRAW X8 -->
<svg xmlns="http://www.w3.org/2000/svg" xml:space="preserve" width="142px" height="142px" version="1.1" style="shape-rendering:geometricPrecision; text-rendering:geometricPrecision; image-rendering:optimizeQuality; fill-rule:evenodd; clip-rule:evenodd"
viewBox="0 0 142 142"
 xmlns:xlink="http://www.w3.org/1999/xlink">
 <defs>
  <style type="text/css">
   <![CDATA[
    .str0 {stroke:#D2A351;stroke-width:2.36667}
    .fil0 {fill:none}
    .fil1 {fill:#D2A351}
    .fil2 {fill:#FEFEFE;fill-rule:nonzero}
   ]]>
  </style>
 </defs>
 <g id="Layer_x0020_1">
  <metadata id="CorelCorpID_0Corel-Layer"/>
  <circle class="fil0 str0" cx="71" cy="71" r="67"/>
  <g id="_2816227544288">
   <path class="fil1" d="M80 67c0,0 -1,0 -1,0 -1,0 -1,0 -1,0l-1 0 0 -12c0,-2 -1,-4 -4,-5 -2,-1 -6,-2 -10,-2 -4,0 -8,1 -11,2 -2,1 -4,3 -4,5l0 25c0,2 2,3 4,4 3,2 7,2 11,2 1,0 1,0 2,0 1,0 2,0 2,0l1 0 0 0c1,2 3,4 5,6 2,1 4,2 7,2 4,0 7,-2 10,-4 2,-3 4,-6 4,-10 0,-4 -2,-7 -4,-9 -3,-3 -6,-4 -10,-4zm-17 -17c3,0 6,1 8,2 3,0 4,2 4,3 0,1 -1,2 -4,3 -2,1 -5,1 -8,1 -3,0 -6,0 -8,-1 -3,-1 -5,-2 -5,-3 0,-1 2,-3 5,-3 2,-1 5,-2 8,-2zm-12 9c1,0 3,1 5,1 2,1 4,1 7,1 2,0 4,0 6,-1 2,0 4,-1 5,-1l1 -1 0 3c0,1 -1,2 -4,3 -2,1 -5,1 -8,1 -3,0 -6,0 -8,-1 -3,-1 -5,-2 -5,-3l0 -3 1 1zm0 6c1,1 3,1 5,2 2,0 4,0 7,0 2,0 4,0 6,0 2,-1 4,-1 5,-2l1 -1 0 4 0 0c-1,0 -2,0 -3,1 0,0 -1,1 -2,2l0 0 0 0c-1,0 -2,0 -3,0 -2,1 -3,1 -4,1 -3,0 -6,-1 -8,-1 -3,-1 -5,-3 -5,-4l0 -3 1 1zm0 6c1,1 3,2 5,2 2,0 4,1 7,1 1,0 1,0 2,0 1,0 2,-1 2,-1l1 0 0 1c0,1 -1,1 -1,2 0,0 0,1 0,1l0 1 -1 0c0,0 -1,0 -1,0 -1,0 -2,0 -2,0 -3,0 -6,0 -8,-1 -3,-1 -5,-2 -5,-3l0 -3 1 0zm12 13c-3,0 -6,0 -8,-1 -3,-1 -5,-2 -5,-3l0 -3 1 1c1,0 3,1 5,1 2,1 4,1 7,1 1,0 2,0 3,0l0 0 0 0c0,1 0,1 1,2 0,0 0,1 0,2l0 0 -1 0c-1,0 -2,0 -3,0zm17 8c-3,0 -6,-2 -8,-4 -2,-2 -4,-5 -4,-8 0,-3 2,-6 4,-8 2,-2 5,-3 8,-3 3,0 6,1 8,3 2,2 4,5 4,8 0,3 -2,6 -4,8 -2,2 -5,4 -8,4z"/>
   <path class="fil1" d="M84 77c0,-1 0,-1 0,-1 0,0 0,0 -1,0 0,0 0,0 0,0 0,0 0,0 0,0l-7 7c0,0 0,0 0,0 0,1 0,1 0,1 0,0 0,1 1,1 0,0 0,-1 0,-1l7 -6c0,-1 0,-1 0,-1z"/>
   <path class="fil2" d="M84 77c0,0 0,0 0,-1 0,0 0,0 0,0 0,0 0,0 0,0 0,0 -1,0 -1,0 0,0 0,0 0,0 0,0 0,0 0,0l-7 7c0,0 0,0 0,0 0,0 0,0 0,0 0,1 0,1 0,1 0,0 0,0 0,0 0,0 0,0 0,0 0,0 1,0 1,0 0,0 0,0 0,0 0,0 0,0 0,0l7 -7c0,0 0,0 0,0 0,0 0,0 0,0zm1 -1c0,0 0,1 0,1 0,0 0,0 0,0 0,0 0,1 -1,1l-6 6c0,1 -1,1 -1,1 0,0 0,0 0,0 -1,0 -1,0 -1,0 0,0 0,0 0,-1 -1,0 -1,0 -1,0 0,0 0,0 0,-1 0,0 0,0 0,0 0,0 0,0 1,-1l6 -6c0,0 1,-1 1,-1 0,0 0,0 0,0 1,0 1,0 1,0 0,0 0,1 0,1 1,0 1,0 1,0z"/>
   <circle class="fil1" cx="77" cy="77" r="2"/>
   <path class="fil2" d="M78 77c0,0 0,-1 0,-1 0,0 -1,0 -1,0 -1,0 -1,0 -1,0 0,0 -1,1 -1,1 0,0 1,1 1,1 0,0 0,0 1,0 0,0 1,0 1,0 0,0 0,-1 0,-1zm0 -2c1,1 1,1 1,2 0,1 0,1 -1,2 0,0 -1,0 -1,0 -1,0 -1,0 -2,0 0,-1 0,-1 0,-2 0,-1 0,-1 0,-2 1,0 1,0 2,0 0,0 1,0 1,0z"/>
   <circle class="fil1" cx="83" cy="83" r="2"/>
   <path class="fil2" d="M85 83c0,0 -1,-1 -1,-1 0,0 -1,0 -1,0 0,0 -1,0 -1,0 0,0 0,1 0,1 0,1 0,1 0,1 0,0 1,1 1,1 0,0 1,-1 1,-1 0,0 1,0 1,-1zm0 -1c0,0 0,1 0,1 0,1 0,1 0,2 -1,0 -1,0 -2,0 -1,0 -1,0 -1,0 -1,-1 -1,-1 -1,-2 0,0 0,-1 1,-1 0,-1 0,-1 1,-1 1,0 1,0 2,1z"/>
  </g>
 </g>
</svg>
