<?xml version="1.0" encoding="UTF-8"?>
<!DOCTYPE svg PUBLIC "-//W3C//DTD SVG 1.1//EN" "http://www.w3.org/Graphics/SVG/1.1/DTD/svg11.dtd">
<!-- Creator: CorelDRAW X8 -->
<svg xmlns="http://www.w3.org/2000/svg" xml:space="preserve" width="142px" height="142px" version="1.1" style="shape-rendering:geometricPrecision; text-rendering:geometricPrecision; image-rendering:optimizeQuality; fill-rule:evenodd; clip-rule:evenodd"
viewBox="0 0 142 142"
 xmlns:xlink="http://www.w3.org/1999/xlink">
 <defs>
  <style type="text/css">
   <![CDATA[
    .str0 {stroke:#D2A351;stroke-width:2.36667}
    .fil0 {fill:none}
    .fil1 {fill:#D2A351}
   ]]>
  </style>
 </defs>
 <g id="Layer_x0020_1">
  <metadata id="CorelCorpID_0Corel-Layer"/>
  <circle class="fil0 str0" cx="71" cy="71" r="67"/>
  <g id="_2816624471536">
   <path class="fil1" d="M93 92l-44 0c0,0 -1,0 -1,1 0,0 1,1 1,1l44 0c0,0 1,-1 1,-1 0,-1 -1,-1 -1,-1z"/>
   <path class="fil1" d="M53 90l6 0c0,0 1,-1 1,-1l0 -8c0,0 -1,-1 -1,-1l-6 0c0,0 -1,1 -1,1l0 8c0,0 1,1 1,1zm1 -8l4 0 0 6 -4 0 0 -6z"/>
   <path class="fil1" d="M63 74c-1,0 -1,1 -1,1l0 14c0,0 0,1 1,1l5 0c1,0 1,-1 1,-1l0 -14c0,0 0,-1 -1,-1l-5 0zm4 14l-4 0 0 -12 4 0 0 12z"/>
   <path class="fil1" d="M72 69c-1,0 -1,0 -1,1l0 19c0,0 0,1 1,1l6 0c0,0 1,-1 1,-1l0 -19c0,-1 -1,-1 -1,-1l-6 0zm5 19l-4 0 0 -17 4 0 0 17z"/>
   <path class="fil1" d="M80 60l0 29c0,0 1,1 1,1l6 0c0,0 1,-1 1,-1l0 -29c0,-1 -1,-1 -1,-1l-6 0c0,0 -1,0 -1,1zm2 1l4 0 0 27 -4 0 0 -27z"/>
   <path class="fil1" d="M53 76c0,0 0,0 1,0 7,-3 14,-8 20,-14 3,-3 6,-6 8,-10 0,1 1,1 1,2 0,1 0,1 1,1 0,0 0,0 0,0 0,0 1,-1 1,-1 -1,-2 -1,-3 -1,-5 -1,0 -1,-1 -2,-1 -1,1 -3,1 -4,1 -1,1 -1,1 -1,2 0,0 1,0 1,0 0,0 0,0 0,0 1,0 2,0 3,0 -3,3 -5,7 -8,10 -6,6 -13,10 -20,13 -1,1 -1,1 -1,2 0,0 1,0 1,0z"/>
  </g>
 </g>
</svg>
